<svg width="27" height="27" viewBox="0 0 27 27" fill="none" xmlns="http://www.w3.org/2000/svg">
<g clip-path="url(#clip0_323_21)">
<path d="M3.375 3.375V26.1562C3.37489 26.3028 3.41294 26.4468 3.4854 26.5741C3.55787 26.7015 3.66224 26.8078 3.78825 26.8825C3.91427 26.9573 4.05758 26.9979 4.20408 27.0005C4.35058 27.003 4.49521 26.9674 4.62375 26.8971L13.5 22.0539L22.3763 26.8971C22.5048 26.9674 22.6494 27.003 22.7959 27.0005C22.9424 26.9979 23.0857 26.9573 23.2117 26.8825C23.3378 26.8078 23.4421 26.7015 23.5146 26.5741C23.5871 26.4468 23.6251 26.3028 23.625 26.1562V3.375C23.625 2.47989 23.2694 1.62145 22.6365 0.988515C22.0035 0.355579 21.1451 0 20.25 0L6.75 0C5.85489 0 4.99645 0.355579 4.36351 0.988515C3.73058 1.62145 3.375 2.47989 3.375 3.375Z" fill="black"/>
</g>
<defs>
<clipPath id="clip0_323_21">
<rect width="27" height="27" fill="white"/>
</clipPath>
</defs>
</svg>
