<svg width="23" height="27" viewBox="0 0 23 27" fill="none" xmlns="http://www.w3.org/2000/svg">
<path d="M0 3.37505C0 2.47993 0.403868 1.62148 1.12276 0.988531C1.84165 0.355585 2.81667 0 3.83333 0L19.1667 0C20.1833 0 21.1584 0.355585 21.8772 0.988531C22.5961 1.62148 23 2.47993 23 3.37505V26.1567C22.9999 26.3093 22.9528 26.459 22.8637 26.59C22.7746 26.7209 22.6468 26.8281 22.494 26.9001C22.3412 26.9721 22.169 27.0063 21.9959 26.999C21.8227 26.9917 21.6551 26.9432 21.5107 26.8587L11.5 22.1083L1.48925 26.8587C1.34494 26.9432 1.17727 26.9917 1.00413 26.999C0.830976 27.0063 0.658822 26.9721 0.505999 26.9001C0.353176 26.8281 0.225408 26.7209 0.136302 26.59C0.0471961 26.459 8.95475e-05 26.3093 0 26.1567V3.37505ZM3.83333 1.68753C3.325 1.68753 2.83749 1.86532 2.47805 2.18179C2.1186 2.49827 1.91667 2.92749 1.91667 3.37505V24.5805L10.9691 20.3921C11.1264 20.2999 11.3111 20.2508 11.5 20.2508C11.6889 20.2508 11.8736 20.2999 12.0309 20.3921L21.0833 24.5805V3.37505C21.0833 2.92749 20.8814 2.49827 20.522 2.18179C20.1625 1.86532 19.675 1.68753 19.1667 1.68753H3.83333Z" fill="#201B2C"/>
</svg>
